<?xml version="1.0" encoding="UTF-8"?>
<svg id="Layer_2" data-name="Layer 2" xmlns="http://www.w3.org/2000/svg" viewBox="0 0 484.45 199.88">
  <defs>
    <style>
      .cls-1 {
        fill: #fff;
        stroke-width: 0px;
      }
    </style>
  </defs>
  <g id="Layer_1-2" data-name="Layer 1">
    <g>
      <path class="cls-1" d="m35.79,83.4L0,0h29.11l19.16,50.04L67.13,0h24.06l18.71,50.04L129.2,0h28.51l-35.79,83.4h-24.21l-18.86-50.76-18.86,50.76h-24.21Z"/>
      <path class="cls-1" d="m224.7,80.18c-6.83,2.98-16.04,4.89-28.51,4.89-26.44,0-42.33-12.87-42.33-31.69s15.89-31.22,38.46-31.22,36.98,11.8,36.98,31.22c0,1.79-.3,4.53-.45,5.72h-48.27c2.08,5.12,8.76,7.86,19.31,7.86,8.47,0,16.04-1.43,24.8-5v18.23Zm-20.94-33.48c-.59-4.89-5.2-7.86-11.44-7.86s-11.14,3.1-12.33,7.86h23.76Z"/>
      <path class="cls-1" d="m36.68,146.74l29.85-31.93h32.97l-39.21,39.67,41.88,43.73h-35.05l-30.44-33.84v33.84H8.61v-83.4h28.07v31.93Z"/>
      <path class="cls-1" d="m137.82,114.81v83.4h-27.18v-83.4h27.18Z"/>
      <path class="cls-1" d="m220.99,195c-6.83,2.98-16.04,4.88-28.51,4.88-26.44,0-42.33-12.87-42.33-31.69s15.89-31.22,38.46-31.22,36.98,11.8,36.98,31.22c0,1.79-.3,4.53-.45,5.72h-48.27c2.08,5.12,8.76,7.86,19.31,7.86,8.47,0,16.04-1.43,24.8-5v18.23Zm-20.94-33.48c-.59-4.89-5.2-7.86-11.44-7.86s-11.14,3.1-12.33,7.86h23.76Z"/>
      <path class="cls-1" d="m227.82,138.64h28.66l14.41,33.12,14.41-33.12h27.77l-29.85,59.57h-25.54l-29.85-59.57Z"/>
      <path class="cls-1" d="m385.68,195c-6.83,2.98-16.04,4.88-28.51,4.88-26.44,0-42.33-12.87-42.33-31.69s15.89-31.22,38.46-31.22,36.98,11.8,36.98,31.22c0,1.79-.3,4.53-.45,5.72h-48.27c2.08,5.12,8.76,7.86,19.31,7.86,8.46,0,16.04-1.43,24.8-5v18.23Zm-20.94-33.48c-.59-4.89-5.2-7.86-11.44-7.86s-11.14,3.1-12.33,7.86h23.76Z"/>
      <path class="cls-1" d="m452.81,160.09c-1.93-.6-4.31-.83-6.53-.83-11.29,0-17.67,6.2-17.67,17.28v21.68h-27.03v-59.57h26.88v9.41c4.01-6.91,10.84-10.84,20.35-10.84,1.63,0,3.27.24,4.01.48v22.4Z"/>
      <path class="cls-1" d="m468.7,199.88c-8.61,0-15.74-5.72-15.74-12.51s7.13-12.51,15.74-12.51,15.74,5.72,15.74,12.51-6.98,12.51-15.74,12.51Z"/>
    </g>
  </g>
</svg>