<?xml version="1.0" encoding="utf-8"?>
<svg width="662" height="454" viewBox="0 0 662 454" fill="none" xmlns="http://www.w3.org/2000/svg">
<rect x="41.5627" y="388.857" width="83.1255" height="63.1434" fill="#FFE607"/>
<rect x="166.251" y="346.495" width="83.1255" height="105.505" fill="#FFE607"/>
<rect x="290.939" y="291.344" width="83.1255" height="160.656" fill="#FFE607"/>
<rect x="415.627" y="199.427" width="83.1255" height="252.573" fill="#FFE607"/>
<rect x="540.315" y="77.9355" width="83.1255" height="374.065" fill="#FFE607"/>
<path d="M0 452L661.806 452" stroke="white" stroke-width="4"/>
<path d="M611.452 22.7849L594.667 6L577.882 22.7849" stroke="white" stroke-width="8"/>
<path d="M594.667 7.59857C594.667 240.675 347.034 429.62 41.5627 429.62" stroke="white" stroke-width="8"/>
<path fill-rule="evenodd" clip-rule="evenodd" d="M498.753 239.154C478.689 262.062 455.723 283.389 430.24 302.833C425.456 306.483 420.585 310.066 415.627 313.58V323.349C422.263 318.75 428.754 314.03 435.093 309.193C458.462 291.362 479.784 271.939 498.753 251.151V239.154ZM540.315 182.657V197.667C564.546 160.545 581.915 120.312 591.116 77.9355L582.921 77.9355C574.738 114.675 560.251 149.807 540.315 182.657ZM374.065 349.488V340.26C348.081 355.338 320.275 368.695 290.939 380.103V388.679C320.21 377.46 348.013 364.326 374.065 349.488ZM249.376 403.006V394.631C222.66 402.957 194.887 409.727 166.251 414.791V422.913C194.858 417.914 222.629 411.231 249.376 403.006ZM124.688 428.912V420.859C97.5835 423.994 69.8245 425.62 41.5627 425.62V433.62C69.8077 433.62 97.5658 432.013 124.688 428.912Z" fill="#141313"/>
</svg>
