<?xml version="1.0" encoding="utf-8"?>
<svg width="603" height="407" viewBox="0 0 603 407" fill="none" xmlns="http://www.w3.org/2000/svg">
<rect x="72.2396" y="334.471" width="261.289" height="261.079" transform="rotate(-90 72.2396 334.471)" fill="#EE67D8"/>
<path d="M202.939 63.6899C225.955 63.6899 243.001 80.9469 243.001 104.368C243.001 127.789 225.955 144.897 202.939 144.897C179.923 144.897 162.877 127.755 162.877 104.368C162.877 80.9812 179.923 63.6899 202.939 63.6899Z" fill="#131314"/>
<path d="M202.939 261.647C225.955 261.647 243.001 278.904 243.001 302.325C243.001 325.746 225.955 342.854 202.939 342.854C179.923 342.854 162.877 325.712 162.877 302.325C162.877 278.938 179.923 261.647 202.939 261.647Z" fill="#131314"/>
<path d="M40.0621 163.166C63.0783 163.166 80.1243 180.423 80.1243 203.845C80.1243 227.266 63.0783 244.374 40.0621 244.374C17.046 244.374 -7.50282e-07 227.231 -1.77385e-06 203.845C-2.79742e-06 180.458 17.046 163.166 40.0621 163.166Z" fill="#EE67D8"/>
<path d="M301.856 160.391C325.075 160.391 342.275 178.32 342.275 202.644C342.275 226.968 325.075 244.738 301.856 244.738C278.637 244.738 261.436 226.936 261.436 202.644C261.436 178.353 278.637 160.391 301.856 160.391ZM301.856 220.478C305.342 220.478 308.75 219.428 311.647 217.462C314.545 215.496 316.802 212.702 318.133 209.434C319.465 206.166 319.81 202.571 319.125 199.103C318.44 195.636 316.757 192.453 314.287 189.957C311.818 187.461 308.673 185.764 305.253 185.082C301.832 184.4 298.289 184.763 295.072 186.125C291.855 187.487 289.109 189.787 287.181 192.734C285.253 195.68 284.231 199.14 284.244 202.677C284.164 205.042 284.565 207.398 285.423 209.599C286.28 211.8 287.576 213.797 289.228 215.468C290.881 217.138 292.855 218.445 295.028 219.307C297.2 220.169 299.525 220.567 301.856 220.478Z" fill="#FFE607"/>
<rect x="333.325" y="334.471" width="261.289" height="261.079" transform="rotate(-90 333.325 334.471)" fill="#FFE607"/>
<path d="M463.704 -5.51547e-05C486.72 -5.61595e-05 503.766 17.257 503.766 40.6781C503.766 64.0991 486.72 81.2075 463.704 81.2075C440.688 81.2075 423.642 64.0648 423.642 40.6781C423.642 17.2913 440.688 -5.41499e-05 463.704 -5.51547e-05Z" fill="#FFE607"/>
<path d="M463.704 325.338C486.72 325.338 503.766 342.595 503.766 366.016C503.766 389.437 486.72 406.546 463.704 406.546C440.688 406.546 423.642 389.403 423.642 366.016C423.642 342.629 440.688 325.338 463.704 325.338Z" fill="#FFE607"/>
<path d="M562.939 163.166C585.955 163.166 603.001 180.423 603.001 203.845C603.001 227.266 585.955 244.374 562.939 244.374C539.923 244.374 522.877 227.231 522.877 203.845C522.877 180.458 539.923 163.166 562.939 163.166Z" fill="#131314"/>
</svg>
