<?xml version="1.0" encoding="utf-8"?>
<svg width="540" height="524" viewBox="0 0 540 524" fill="none" xmlns="http://www.w3.org/2000/svg">
<path d="M351.674 403.782L536.928 173.658L1.53656 171.953L189.481 403.782L351.674 403.782Z" fill="#FFE607"/>
<path d="M351.805 403.015C351.805 409.252 317.336 413.762 270.619 413.762C223.902 413.762 189.729 409.156 189.729 403.015C189.729 396.778 223.902 392.268 270.619 392.268C317.336 392.268 351.805 396.778 351.805 403.015Z" fill="#FFE607"/>
<path d="M540 167.731C540 188.87 425.16 204.578 269.484 204.578C113.808 204.578 0 188.87 0 167.731C0 146.592 113.956 130.884 269.484 130.884C425.012 130.884 540 146.592 540 167.731Z" fill="#0F35F7"/>
<path d="M390.982 167.731C390.982 177.087 339.522 183.851 269.779 183.851C200.036 183.851 149.019 176.943 149.019 167.731C149.019 158.375 200.036 151.61 269.779 151.61C339.522 151.61 390.982 158.375 390.982 167.731Z" fill="#141313"/>
<path d="M193.881 240.027V244.12H189.387V240.027H187.41V250.052H189.387V245.724H193.881V250.052H195.858V240.027H193.881ZM197.617 242.613V250.052H199.525V242.613H197.617ZM197.617 240.027L197.617 241.797H199.525V240.027H197.617ZM204.471 248.337C203.489 248.337 202.756 247.355 202.756 246.125C202.756 244.88 203.489 243.899 204.471 243.899C205.535 243.899 206.185 244.797 206.185 246.111C206.185 247.438 205.535 248.337 204.471 248.337ZM206.116 242.613V243.581C205.784 242.931 204.927 242.447 203.987 242.447C202.12 242.447 200.751 243.996 200.751 246.111C200.751 248.282 202.162 249.789 203.987 249.789C204.761 249.789 205.632 249.485 206.116 248.669V249.664C206.116 250.784 205.452 251.254 204.457 251.254C203.6 251.254 203.088 250.95 202.922 250.342H201.111C201.374 252.07 202.77 252.651 204.36 252.651C206.641 252.651 208.01 251.738 208.01 249.305V242.613H206.116ZM211.65 240.027H209.742L209.742 250.052H211.65V246.18C211.65 245.005 211.926 243.982 213.185 243.982C214.263 243.982 214.47 244.825 214.47 245.779V250.052H216.378V245.364C216.378 243.498 215.618 242.447 213.807 242.447C212.88 242.447 212.078 242.834 211.65 243.595V240.027ZM222.292 247.189V245.53H217.716V247.189H222.292ZM222.25 240.027L225.735 250.052H227.753L231.21 240.027H229.108L226.785 247.577L224.393 240.027H222.25ZM238.205 246.858C238.274 244.231 236.85 242.447 234.554 242.447C232.356 242.447 230.821 244.092 230.821 246.305C230.821 248.448 232.218 250.231 234.61 250.231C236.642 250.231 237.721 249.001 238.122 247.895H236.158C235.771 248.544 235.19 248.752 234.596 248.752C233.683 248.752 232.826 248.13 232.715 246.858H238.205ZM234.54 243.843C235.342 243.843 236.227 244.286 236.269 245.544H232.743C232.895 244.286 233.822 243.843 234.54 243.843ZM241.342 240.027H239.434V250.052H241.342V240.027ZM246.288 243.94C247.338 243.94 248.085 244.756 248.085 246.346C248.085 247.936 247.338 248.738 246.288 248.738C245.237 248.738 244.49 247.936 244.49 246.346C244.49 244.756 245.237 243.94 246.288 243.94ZM246.288 250.231C248.168 250.231 250.021 248.945 250.021 246.346C250.021 243.733 248.168 242.447 246.288 242.447C244.407 242.447 242.554 243.733 242.554 246.346C242.554 248.945 244.407 250.231 246.288 250.231ZM254.592 242.447C252.366 242.447 250.859 244.078 250.859 246.346C250.859 248.6 252.283 250.231 254.509 250.231C256.057 250.231 257.592 249.554 258.035 247.521H256.21C255.947 248.406 255.269 248.752 254.606 248.752C253.555 248.752 252.808 247.908 252.808 246.318C252.808 244.756 253.596 243.926 254.592 243.926C255.325 243.926 255.988 244.438 256.14 245.157H257.966C257.703 243.318 256.154 242.447 254.592 242.447ZM259.174 242.613V250.052H261.082V242.613H259.174ZM259.174 240.027V241.797H261.082V240.027H259.174ZM263.055 242.613H262.005V243.926H263.055V248.047C263.055 249.526 263.373 250.052 265.088 250.052H266.484V248.683H265.904C265.226 248.683 264.963 248.531 264.963 247.77V243.926H266.512V242.613H264.963V240.594H263.055V242.613ZM268.481 252.471C270.334 252.471 270.707 252.139 271.592 249.83L274.316 242.613L272.38 242.613L270.652 247.978L268.965 242.613H266.877L269.726 250.024L269.643 250.231C269.311 251.006 269.034 251.006 268.398 251.006H267.679V252.471H268.481ZM278.335 250.052H280.312V245.724H285.345V244.12H280.312V241.631H285.635V240.027H278.335V250.052ZM290.931 250.052H292.839V242.613H290.931V246.484C290.931 247.66 290.654 248.697 289.382 248.697C288.318 248.697 288.166 247.895 288.166 246.899V242.613H286.258V247.314C286.258 249.139 286.977 250.231 288.76 250.231C289.687 250.231 290.502 249.83 290.931 249.07V250.052ZM296.458 240.027H294.55V250.052H296.458V240.027ZM300.077 240.027H298.169V250.052H300.077V240.027ZM306.101 247.189V245.53H301.525V247.189H306.101ZM307.608 250.052H309.585V245.724H314.618V244.12H309.585V241.631H314.909V240.027H307.608V250.052ZM320.204 250.052H322.112V242.613H320.204V246.484C320.204 247.66 319.928 248.697 318.656 248.697C317.591 248.697 317.439 247.895 317.439 246.899V242.613H315.531V247.314C315.531 249.139 316.25 250.231 318.033 250.231C318.96 250.231 319.776 249.83 320.204 249.07V250.052ZM325.732 242.613H323.824V250.052H325.732V246.18C325.732 245.005 326.008 243.982 327.266 243.982C328.345 243.982 328.552 244.825 328.552 245.779V250.052H330.46V245.364C330.46 243.498 329.7 242.447 327.889 242.447C326.962 242.447 326.16 242.834 325.732 243.595V242.613ZM333.968 242.613H332.06V250.052H333.968V246.18C333.968 245.005 334.245 243.982 335.503 243.982C336.581 243.982 336.789 244.825 336.789 245.779V250.052H338.697V245.364C338.697 243.498 337.936 242.447 336.125 242.447C335.199 242.447 334.397 242.834 333.968 243.595V242.613ZM347.196 246.858C347.265 244.231 345.841 242.447 343.546 242.447C341.347 242.447 339.813 244.092 339.813 246.305C339.813 248.448 341.209 250.231 343.601 250.231C345.633 250.231 346.712 249.001 347.113 247.895H345.15C344.762 248.544 344.182 248.752 343.587 248.752C342.675 248.752 341.817 248.13 341.707 246.858H347.196ZM343.532 243.843C344.334 243.843 345.219 244.286 345.26 245.544H341.734C341.887 244.286 342.813 243.843 343.532 243.843ZM350.333 240.027H348.425V250.052H350.333V240.027ZM215.4 268.052H222.701V266.448H217.377V263.724H222.41V262.12H217.377V259.631H222.701V258.027H215.4V268.052ZM230.418 260.613H228.469L226.865 262.811L225.316 260.613H223.187L225.773 264.305L223.035 268.052H224.971L226.713 265.66L228.4 268.052H230.543L227.805 264.166L230.418 260.613ZM234.981 266.766C233.93 266.766 233.239 265.881 233.239 264.332C233.239 262.839 233.93 261.913 234.981 261.913C235.976 261.913 236.681 262.908 236.681 264.346C236.681 265.798 235.976 266.766 234.981 266.766ZM233.308 270.471V267.111C233.792 267.941 234.663 268.231 235.437 268.231C237.207 268.231 238.686 266.71 238.686 264.332C238.686 261.996 237.248 260.447 235.451 260.447C234.511 260.447 233.709 260.862 233.308 261.567V260.613H231.4V270.471H233.308ZM246.927 264.858C246.996 262.231 245.572 260.447 243.277 260.447C241.078 260.447 239.544 262.092 239.544 264.305C239.544 266.448 240.94 268.231 243.332 268.231C245.365 268.231 246.443 267.001 246.844 265.895H244.881C244.494 266.544 243.913 266.752 243.318 266.752C242.406 266.752 241.549 266.13 241.438 264.858H246.927ZM243.263 261.843C244.065 261.843 244.95 262.286 244.991 263.544H241.466C241.618 262.286 242.544 261.843 243.263 261.843ZM252.415 260.654C252.29 260.641 252.152 260.627 252 260.627C251.129 260.627 250.465 260.986 250.036 261.913V260.613H248.156V268.052H250.064V264.152C250.064 262.756 250.686 262.41 251.627 262.41C251.903 262.41 252.138 262.41 252.415 262.452V260.654ZM253.395 260.613V268.052H255.303V260.613H253.395ZM253.395 258.027V259.797H255.303V258.027H253.395ZM266.167 268.052H268.075V263.364C268.075 261.608 267.425 260.447 265.558 260.447C264.438 260.447 263.706 260.834 263.111 261.664C262.821 261.111 262.268 260.447 260.996 260.447C260.097 260.447 259.35 260.862 258.922 261.595V260.613H257.014V268.052H258.922V264.18C258.922 263.046 259.115 261.982 260.401 261.982C261.521 261.982 261.59 262.908 261.59 263.724V268.052H263.498V264.18C263.498 263.046 263.692 261.982 264.978 261.982C266.098 261.982 266.167 262.908 266.167 263.724V268.052ZM276.578 264.858C276.647 262.231 275.223 260.447 272.928 260.447C270.73 260.447 269.195 262.092 269.195 264.305C269.195 266.448 270.591 268.231 272.983 268.231C275.016 268.231 276.094 267.001 276.495 265.895H274.532C274.145 266.544 273.564 266.752 272.97 266.752C272.057 266.752 271.2 266.13 271.089 264.858H276.578ZM272.914 261.843C273.716 261.843 274.601 262.286 274.643 263.544H271.117C271.269 262.286 272.195 261.843 272.914 261.843ZM279.715 260.613H277.807V268.052H279.715V264.18C279.715 263.005 279.992 261.982 281.25 261.982C282.329 261.982 282.536 262.825 282.536 263.779V268.052H284.444V263.364C284.444 261.498 283.684 260.447 281.872 260.447C280.946 260.447 280.144 260.834 279.715 261.595V260.613ZM286.307 260.613H285.256V261.926H286.307V266.047C286.307 267.526 286.625 268.052 288.339 268.052H289.735V266.683H289.155C288.477 266.683 288.215 266.531 288.215 265.77V261.926H289.763V260.613H288.215V258.594H286.307V260.613ZM295.631 265.203C295.631 266.296 295.134 266.932 293.931 266.932C293.06 266.932 292.645 266.489 292.645 265.95C292.645 265.12 293.488 264.871 295.631 264.65V265.203ZM295.797 267.125C295.839 267.498 295.866 267.816 295.922 268.052H297.678C297.526 267.429 297.456 266.766 297.456 265.59C297.456 264.927 297.484 263.917 297.484 263.696C297.484 261.194 296.032 260.419 294.276 260.419C292.355 260.419 291.165 261.498 291.013 262.963H292.797C292.838 262.134 293.447 261.76 294.18 261.76C294.954 261.76 295.576 262.161 295.576 263.309V263.433C292.645 263.765 290.682 264.291 290.682 266.047C290.682 267.402 291.94 268.231 293.364 268.231C294.484 268.231 295.258 267.899 295.797 267.125ZM299.336 260.613H298.286V261.926H299.336V266.047C299.336 267.526 299.654 268.052 301.369 268.052H302.765V266.683H302.185C301.507 266.683 301.244 266.531 301.244 265.77V261.926H302.793V260.613H301.244V258.594H299.336V260.613ZM304.016 260.613V268.052H305.924V260.613H304.016ZM304.016 258.027V259.797H305.924V258.027H304.016ZM310.87 261.94C311.92 261.94 312.667 262.756 312.667 264.346C312.667 265.936 311.92 266.738 310.87 266.738C309.819 266.738 309.072 265.936 309.072 264.346C309.072 262.756 309.819 261.94 310.87 261.94ZM310.87 268.231C312.75 268.231 314.603 266.945 314.603 264.346C314.603 261.733 312.75 260.447 310.87 260.447C308.989 260.447 307.136 261.733 307.136 264.346C307.136 266.945 308.989 268.231 310.87 268.231ZM317.725 260.613H315.817V268.052H317.725V264.18C317.725 263.005 318.001 261.982 319.259 261.982C320.338 261.982 320.545 262.825 320.545 263.779V268.052H322.453V263.364C322.453 261.498 321.693 260.447 319.882 260.447C318.955 260.447 318.153 260.834 317.725 261.595V260.613Z" fill="#141313"/>
<path d="M220.707 334.877H222.905L220.679 330.535C221.937 329.996 222.49 329.056 222.49 327.894C222.49 325.793 221.232 324.852 217.927 324.852H214.637V334.877H216.614V330.95H218.245H218.716L220.707 334.877ZM218.149 326.401C219.49 326.401 220.458 326.76 220.458 327.908C220.458 328.904 219.808 329.415 218.245 329.415H216.614V326.401H218.149ZM227.039 328.765C228.09 328.765 228.837 329.581 228.837 331.171C228.837 332.761 228.09 333.563 227.039 333.563C225.989 333.563 225.242 332.761 225.242 331.171C225.242 329.581 225.989 328.765 227.039 328.765ZM227.039 335.056C228.92 335.056 230.772 333.77 230.772 331.171C230.772 328.558 228.92 327.272 227.039 327.272C225.159 327.272 223.306 328.558 223.306 331.171C223.306 333.77 225.159 335.056 227.039 335.056ZM235.567 333.591C234.517 333.591 233.825 332.706 233.825 331.157C233.825 329.664 234.517 328.738 235.567 328.738C236.563 328.738 237.268 329.733 237.268 331.171C237.268 332.623 236.563 333.591 235.567 333.591ZM233.894 334.877V333.936C234.378 334.766 235.263 335.056 236.038 335.056C237.807 335.056 239.273 333.535 239.273 331.157C239.273 328.821 237.835 327.272 236.038 327.272C235.097 327.272 234.295 327.687 233.894 328.392V324.852H231.986L231.986 334.877H233.894ZM245.083 334.877H246.991V327.438H245.083V331.309C245.083 332.485 244.806 333.522 243.534 333.522C242.47 333.522 242.318 332.72 242.318 331.724V327.438H240.41L240.41 332.139C240.41 333.964 241.129 335.056 242.912 335.056C243.839 335.056 244.654 334.655 245.083 333.895V334.877ZM254.675 329.678C254.413 327.963 252.947 327.244 251.399 327.244C249.795 327.244 248.357 328.129 248.357 329.457C248.357 330.812 249.283 331.392 250.68 331.683L251.786 331.918C252.436 332.07 253.002 332.277 253.002 332.83C253.002 333.37 252.491 333.674 251.661 333.674C250.666 333.674 250.168 333.134 250.057 332.415H248.218C248.398 334.116 249.781 335.056 251.606 335.056C253.293 335.056 254.827 334.144 254.827 332.651C254.827 331.116 253.569 330.742 252.09 330.411L251.094 330.189C250.389 330.037 250.099 329.733 250.099 329.332C250.099 328.876 250.597 328.613 251.302 328.613C252.187 328.613 252.74 329.056 252.892 329.678H254.675ZM256.378 327.438H255.327V328.751H256.378V332.872C256.378 334.351 256.696 334.877 258.41 334.877H259.807V333.508H259.226C258.549 333.508 258.286 333.356 258.286 332.595V328.751H259.835V327.438H258.286V325.419H256.378V327.438ZM263.319 334.877H265.338L266.043 332.844H269.942L270.647 334.877H272.79L269.043 324.852H267.052L263.319 334.877ZM267.992 327.272L269.375 331.226H266.61L267.992 327.272ZM275.549 327.438H273.641V334.877H275.549V331.005C275.549 329.83 275.826 328.807 277.084 328.807C278.163 328.807 278.37 329.65 278.37 330.604V334.877H280.278V330.189C280.278 328.323 279.518 327.272 277.706 327.272C276.78 327.272 275.978 327.659 275.549 328.42V327.438ZM286.523 332.028C286.523 333.121 286.026 333.757 284.823 333.757C283.952 333.757 283.537 333.314 283.537 332.775C283.537 331.945 284.38 331.697 286.523 331.475V332.028ZM286.689 333.95C286.731 334.324 286.759 334.642 286.814 334.877H288.57C288.418 334.254 288.349 333.591 288.349 332.415C288.349 331.752 288.376 330.742 288.376 330.521C288.376 328.019 286.924 327.244 285.168 327.244C283.247 327.244 282.058 328.323 281.905 329.788H283.689C283.731 328.959 284.339 328.586 285.072 328.586C285.846 328.586 286.468 328.987 286.468 330.134V330.259C283.537 330.59 281.574 331.116 281.574 332.872C281.574 334.227 282.832 335.056 284.256 335.056C285.376 335.056 286.15 334.724 286.689 333.95ZM291.874 324.852H289.966V334.877H291.874V324.852ZM294.331 337.296C296.184 337.296 296.557 336.964 297.442 334.655L300.166 327.438H298.23L296.502 332.803L294.815 327.438H292.727L295.575 334.849L295.492 335.056C295.161 335.831 294.884 335.831 294.248 335.831H293.529V337.296H294.331ZM301.287 327.438H300.236V328.751H301.287V332.872C301.287 334.351 301.605 334.877 303.319 334.877H304.716V333.508H304.135C303.458 333.508 303.195 333.356 303.195 332.595V328.751H304.743V327.438H303.195V325.419H301.287V327.438ZM305.966 327.438V334.877H307.874V327.438H305.966ZM305.966 324.852V326.622H307.874V324.852H305.966ZM312.834 327.272C310.608 327.272 309.101 328.904 309.101 331.171C309.101 333.425 310.525 335.056 312.751 335.056C314.3 335.056 315.834 334.379 316.277 332.346H314.452C314.189 333.231 313.511 333.577 312.848 333.577C311.797 333.577 311.05 332.733 311.05 331.143C311.05 329.581 311.838 328.751 312.834 328.751C313.567 328.751 314.23 329.263 314.382 329.982H316.208C315.945 328.143 314.396 327.272 312.834 327.272ZM323.47 329.678C323.207 327.963 321.742 327.244 320.193 327.244C318.589 327.244 317.151 328.129 317.151 329.457C317.151 330.812 318.078 331.392 319.474 331.683L320.58 331.918C321.23 332.07 321.797 332.277 321.797 332.83C321.797 333.37 321.286 333.674 320.456 333.674C319.46 333.674 318.963 333.134 318.852 332.415H317.013C317.193 334.116 318.576 335.056 320.401 335.056C322.087 335.056 323.622 334.144 323.622 332.651C323.622 331.116 322.364 330.742 320.885 330.411L319.889 330.189C319.184 330.037 318.894 329.733 318.894 329.332C318.894 328.876 319.391 328.613 320.096 328.613C320.981 328.613 321.534 329.056 321.687 329.678H323.47ZM231.117 353.056C232.389 353.056 233.412 352.572 234.241 351.798L235.209 352.877H237.753L235.403 350.305C235.956 349.323 236.288 348.245 236.398 347.249H234.518C234.476 347.788 234.393 348.369 234.186 348.964L232.859 347.498C233.91 347.014 234.725 346.046 234.725 344.913C234.725 343.253 233.26 342.673 231.974 342.673C230.315 342.673 229.098 343.516 229.098 344.899C229.098 345.687 229.513 346.42 230.121 347.18C228.918 347.623 227.757 348.549 227.757 350.07C227.757 351.77 229.126 353.056 231.117 353.056ZM231.393 351.618C230.398 351.618 229.706 350.927 229.706 349.973C229.706 349.213 230.204 348.66 231.103 348.286L233.232 350.678C232.748 351.245 232.126 351.618 231.393 351.618ZM231.047 344.857C231.047 344.373 231.476 344.041 231.974 344.041C232.513 344.041 232.914 344.387 232.914 344.996C232.914 345.479 232.707 346.102 231.946 346.489L231.932 346.475C231.49 345.991 231.047 345.41 231.047 344.857ZM240.311 352.877H242.329L243.035 350.844H246.934L247.639 352.877H249.782L246.035 342.852H244.044L240.311 352.877ZM244.984 345.272L246.367 349.226H243.601L244.984 345.272ZM250.761 345.438H249.71V346.751H250.761V350.872C250.761 352.351 251.079 352.877 252.793 352.877H254.19V351.508H253.609C252.932 351.508 252.669 351.356 252.669 350.595V346.751H254.217V345.438H252.669V343.419H250.761V345.438ZM255.703 345.438H254.652V346.751H255.703V350.872C255.703 352.351 256.021 352.877 257.735 352.877H259.132V351.508H258.551C257.874 351.508 257.611 351.356 257.611 350.595V346.751H259.159V345.438H257.611V343.419H255.703V345.438ZM264.64 345.479C264.516 345.466 264.378 345.452 264.226 345.452C263.355 345.452 262.691 345.811 262.262 346.738V345.438H260.382V352.877H262.29V348.978C262.29 347.581 262.912 347.235 263.852 347.235C264.129 347.235 264.364 347.235 264.64 347.277V345.479ZM265.621 345.438V352.877H267.529V345.438H265.621ZM265.621 342.852V344.622H267.529V342.852H265.621ZM272.821 351.591C271.77 351.591 271.078 350.706 271.078 349.157C271.078 347.664 271.77 346.738 272.821 346.738C273.816 346.738 274.521 347.733 274.521 349.171C274.521 350.623 273.816 351.591 272.821 351.591ZM271.148 352.877V351.936C271.631 352.766 272.516 353.056 273.291 353.056C275.06 353.056 276.526 351.535 276.526 349.157C276.526 346.821 275.088 345.272 273.291 345.272C272.35 345.272 271.549 345.687 271.148 346.392V342.852H269.24V352.877H271.148ZM282.336 352.877H284.244V345.438H282.336V349.309C282.336 350.485 282.06 351.522 280.788 351.522C279.723 351.522 279.571 350.72 279.571 349.724V345.438H277.663V350.139C277.663 351.964 278.382 353.056 280.165 353.056C281.092 353.056 281.907 352.655 282.336 351.895V352.877ZM286.218 345.438H285.167V346.751H286.218V350.872C286.218 352.351 286.536 352.877 288.251 352.877H289.647V351.508H289.066C288.389 351.508 288.126 351.356 288.126 350.595V346.751H289.675V345.438H288.126V343.419H286.218V345.438ZM290.897 345.438V352.877H292.805V345.438H290.897ZM290.897 342.852V344.622H292.805V342.852H290.897ZM297.751 346.765C298.802 346.765 299.549 347.581 299.549 349.171C299.549 350.761 298.802 351.563 297.751 351.563C296.701 351.563 295.954 350.761 295.954 349.171C295.954 347.581 296.701 346.765 297.751 346.765ZM297.751 353.056C299.632 353.056 301.485 351.77 301.485 349.171C301.485 346.558 299.632 345.272 297.751 345.272C295.871 345.272 294.018 346.558 294.018 349.171C294.018 351.77 295.871 353.056 297.751 353.056ZM304.607 345.438H302.698V352.877H304.607V349.005C304.607 347.83 304.883 346.807 306.141 346.807C307.22 346.807 307.427 347.65 307.427 348.604V352.877H309.335V348.189C309.335 346.323 308.575 345.272 306.763 345.272C305.837 345.272 305.035 345.659 304.607 346.42V345.438Z" fill="#141313"/>
<path d="M279.603 291.706L270.385 299.382L261.167 291.706" stroke="#141313" stroke-width="3.07255"/>
<path d="M279.603 376.915L270.385 384.591L261.167 376.915" stroke="#141313" stroke-width="3.07255"/>
<mask id="mask0" mask-type="alpha" maskUnits="userSpaceOnUse" x="148" y="0" width="243" height="184">
<path fill-rule="evenodd" clip-rule="evenodd" d="M390.982 0H148.25V167.347H149.047C149.028 167.475 149.018 167.602 149.018 167.731C149.018 176.943 200.035 183.851 269.778 183.851C339.522 183.851 390.981 177.087 390.981 167.731C390.981 167.602 390.971 167.475 390.952 167.347H390.982V0Z" fill="white"/>
</mask>
<g mask="url(#mask0)">
<rect x="182.817" y="4.60593" width="173.599" height="188.074" fill="#141313"/>
<path d="M212.21 21.6317L212.21 31.6559L214.187 31.6559V28.1302H215.694C218.017 28.1302 220.05 27.508 220.05 24.9501C220.05 21.9083 217.685 21.6317 215.639 21.6317L212.21 21.6317ZM215.68 23.1803C216.745 23.1803 218.017 23.3186 218.017 24.9639C218.017 26.2912 217.035 26.5954 215.819 26.5954H214.187L214.187 23.1803H215.68ZM225.132 28.8077C225.132 29.9 224.634 30.536 223.431 30.536C222.56 30.536 222.145 30.0935 222.145 29.5543C222.145 28.7247 222.989 28.4758 225.132 28.2546V28.8077ZM225.298 30.7295C225.339 31.1029 225.367 31.4209 225.422 31.6559L227.178 31.6559C227.026 31.0337 226.957 30.3701 226.957 29.1948C226.957 28.5311 226.984 27.5218 226.984 27.3006C226.984 24.798 225.533 24.0237 223.777 24.0237C221.855 24.0237 220.666 25.1022 220.514 26.5678L222.297 26.5678C222.339 25.7382 222.947 25.3649 223.68 25.3649C224.454 25.3649 225.076 25.7658 225.076 26.9134L225.076 27.0379C222.145 27.3697 220.182 27.8951 220.182 29.6511C220.182 31.0061 221.44 31.8357 222.864 31.8357C223.984 31.8357 224.758 31.5038 225.298 30.7295ZM228.574 24.2173V31.6559L230.482 31.6559L230.482 24.2173L228.574 24.2173ZM228.574 21.6317V23.4015L230.482 23.4015V21.6317L228.574 21.6317ZM238.995 31.6559L238.995 21.6317L237.087 21.6317V25.1713C236.686 24.4662 235.884 24.0514 234.944 24.0514C233.147 24.0514 231.709 25.5999 231.709 27.9366C231.709 30.3147 233.174 31.8357 234.944 31.8357C235.718 31.8357 236.603 31.5453 237.087 30.7157V31.6559L238.995 31.6559ZM235.414 30.3701C234.419 30.3701 233.713 29.4022 233.713 27.9504C233.713 26.5125 234.419 25.517 235.414 25.517C236.465 25.517 237.156 26.4433 237.156 27.9366C237.156 29.4852 236.465 30.3701 235.414 30.3701ZM243.873 21.6317L243.873 31.6559L245.85 31.6559V28.1302L247.357 28.1302C249.68 28.1302 251.713 27.508 251.713 24.9501C251.713 21.9083 249.348 21.6317 247.302 21.6317L243.873 21.6317ZM247.344 23.1803C248.408 23.1803 249.68 23.3186 249.68 24.9639C249.68 26.2912 248.699 26.5954 247.482 26.5954L245.85 26.5954V23.1803L247.344 23.1803ZM259.319 28.462C259.388 25.835 257.964 24.0514 255.668 24.0514C253.47 24.0514 251.935 25.6967 251.935 27.9089C251.935 30.052 253.332 31.8357 255.724 31.8357C257.756 31.8357 258.835 30.6051 259.236 29.499L257.272 29.499C256.885 30.1488 256.304 30.3562 255.71 30.3562C254.797 30.3562 253.94 29.734 253.829 28.462L259.319 28.462ZM255.655 25.4478C256.456 25.4478 257.341 25.8903 257.383 27.1485L253.857 27.1485C254.009 25.8903 254.936 25.4478 255.655 25.4478ZM264.806 24.2588C264.682 24.2449 264.543 24.2311 264.391 24.2311C263.52 24.2311 262.857 24.5906 262.428 25.517V24.2173L260.548 24.2173V31.6559L262.456 31.6559V27.7569C262.456 26.3604 263.078 26.0147 264.018 26.0147C264.295 26.0147 264.53 26.0147 264.806 26.0562V24.2588ZM265.966 24.2173L264.915 24.2173V25.5308L265.966 25.5308V31.6559L267.874 31.6559V25.5308H269.368V24.2173H267.874V23.8578C267.874 23.1526 268.054 23.042 268.994 23.042H269.368V21.6317H268.718C266.851 21.6317 265.966 21.9221 265.966 23.8025V24.2173ZM273.572 25.5446C274.623 25.5446 275.37 26.3604 275.37 27.9504C275.37 29.5405 274.623 30.3424 273.572 30.3424C272.521 30.3424 271.775 29.5405 271.775 27.9504C271.775 26.3604 272.521 25.5446 273.572 25.5446ZM273.572 31.8357C275.453 31.8357 277.305 30.5498 277.305 27.9504C277.305 25.3372 275.453 24.0514 273.572 24.0514C271.692 24.0514 269.839 25.3372 269.839 27.9504C269.839 30.5498 271.692 31.8357 273.572 31.8357ZM282.778 24.2588C282.653 24.2449 282.515 24.2311 282.363 24.2311C281.492 24.2311 280.828 24.5906 280.4 25.517V24.2173L278.519 24.2173V31.6559L280.427 31.6559L280.427 27.7569C280.427 26.3604 281.05 26.0147 281.99 26.0147C282.266 26.0147 282.501 26.0147 282.778 26.0562V24.2588ZM292.911 31.6559H294.819V26.9687C294.819 25.2128 294.17 24.0514 292.303 24.0514C291.183 24.0514 290.45 24.4385 289.856 25.2681C289.565 24.715 289.012 24.0514 287.74 24.0514C286.842 24.0514 286.095 24.4662 285.666 25.199V24.2173L283.758 24.2173V31.6559L285.666 31.6559L285.666 27.7845C285.666 26.6507 285.86 25.5861 287.146 25.5861C288.266 25.5861 288.335 26.5125 288.335 27.3282V31.6559H290.243V27.7845C290.243 26.6507 290.436 25.5861 291.722 25.5861C292.842 25.5861 292.911 26.5125 292.911 27.3282V31.6559ZM301.069 28.8077C301.069 29.9 300.571 30.536 299.369 30.536C298.497 30.536 298.083 30.0935 298.083 29.5543C298.083 28.7247 298.926 28.4758 301.069 28.2546V28.8077ZM301.235 30.7295C301.277 31.1029 301.304 31.4209 301.36 31.6559H303.115C302.963 31.0337 302.894 30.3701 302.894 29.1948C302.894 28.5311 302.922 27.5218 302.922 27.3006C302.922 24.798 301.47 24.0237 299.714 24.0237C297.792 24.0237 296.603 25.1022 296.451 26.5678H298.235C298.276 25.7382 298.885 25.3649 299.617 25.3649C300.392 25.3649 301.014 25.7658 301.014 26.9134V27.0379C298.083 27.3697 296.119 27.8951 296.119 29.6511C296.119 31.0061 297.378 31.8357 298.802 31.8357C299.922 31.8357 300.696 31.5038 301.235 30.7295ZM306.419 24.2173L304.511 24.2173V31.6559L306.419 31.6559L306.419 27.7845C306.419 26.6093 306.696 25.5861 307.954 25.5861C309.033 25.5861 309.24 26.4295 309.24 27.3835V31.6559H311.148V26.9687C311.148 25.1022 310.388 24.0514 308.576 24.0514C307.65 24.0514 306.848 24.4385 306.419 25.199V24.2173ZM315.997 24.0514C313.771 24.0514 312.264 25.6829 312.264 27.9504C312.264 30.2041 313.688 31.8357 315.914 31.8357C317.463 31.8357 318.997 31.1582 319.44 29.1257H317.615C317.352 30.0106 316.675 30.3562 316.011 30.3562C314.96 30.3562 314.214 29.5128 314.214 27.9228C314.214 26.3604 315.002 25.5308 315.997 25.5308C316.73 25.5308 317.394 26.0424 317.546 26.7613H319.371C319.108 24.9224 317.56 24.0514 315.997 24.0514ZM327.546 28.462C327.615 25.835 326.191 24.0514 323.896 24.0514C321.698 24.0514 320.163 25.6967 320.163 27.9089C320.163 30.052 321.559 31.8357 323.951 31.8357C325.984 31.8357 327.062 30.6051 327.463 29.499H325.5C325.113 30.1488 324.532 30.3562 323.938 30.3562C323.025 30.3562 322.168 29.734 322.057 28.462L327.546 28.462ZM323.882 25.4478C324.684 25.4478 325.569 25.8903 325.611 27.1485L322.085 27.1485C322.237 25.8903 323.163 25.4478 323.882 25.4478Z" fill="white"/>
<path d="M250.912 73.6564C250.58 75.0252 249.626 75.5506 248.423 75.5506C246.985 75.5506 245.81 74.2786 245.81 71.8866C245.81 69.5638 246.985 68.3194 248.492 68.3194C249.599 68.3194 250.539 68.7757 250.912 70.1721L252.792 70.1721C252.461 68.0844 250.857 66.7432 248.506 66.7432C245.589 66.7432 243.764 68.7204 243.764 71.8866C243.764 75.0944 245.464 77.1269 248.451 77.1269C250.843 77.1269 252.53 75.6889 252.792 73.6564L250.912 73.6564ZM257.444 70.8358C258.494 70.8358 259.241 71.6516 259.241 73.2416C259.241 74.8317 258.494 75.6336 257.444 75.6336C256.393 75.6336 255.646 74.8317 255.646 73.2416C255.646 71.6516 256.393 70.8358 257.444 70.8358ZM257.444 77.1269C259.324 77.1269 261.177 75.841 261.177 73.2416C261.177 70.6284 259.324 69.3426 257.444 69.3426C255.563 69.3426 253.71 70.6284 253.71 73.2416C253.71 75.841 255.563 77.1269 257.444 77.1269ZM264.299 69.5085H262.391V76.9471H264.299V73.0757C264.299 71.9005 264.575 70.8773 265.833 70.8773C266.912 70.8773 267.119 71.7207 267.119 72.6747V76.9471L269.027 76.9471V72.2599C269.027 70.3934 268.267 69.3426 266.456 69.3426C265.529 69.3426 264.727 69.7297 264.299 70.4902V69.5085ZM270.89 69.5085H269.839V70.822H270.89V74.9423C270.89 76.4217 271.208 76.9471 272.922 76.9471H274.319V75.5783H273.738C273.061 75.5783 272.798 75.4262 272.798 74.6657V70.822H274.346V69.5085H272.798V67.4898H270.89V69.5085ZM282.468 73.7532C282.538 71.1262 281.113 69.3426 278.818 69.3426C276.62 69.3426 275.085 70.9879 275.085 73.2001C275.085 75.3432 276.482 77.1269 278.874 77.1269C280.906 77.1269 281.985 75.8963 282.385 74.7902H280.422C280.035 75.44 279.454 75.6474 278.86 75.6474C277.947 75.6474 277.09 75.0252 276.979 73.7532L282.468 73.7532ZM278.804 70.739C279.606 70.739 280.491 71.1815 280.533 72.4397L277.007 72.4397C277.159 71.1815 278.085 70.739 278.804 70.739ZM285.606 69.5085L283.697 69.5085V76.9471L285.606 76.9471L285.606 73.0757C285.606 71.9005 285.882 70.8773 287.14 70.8773C288.219 70.8773 288.426 71.7207 288.426 72.6747V76.9471H290.334V72.2599C290.334 70.3934 289.574 69.3426 287.762 69.3426C286.836 69.3426 286.034 69.7297 285.606 70.4902V69.5085ZM292.197 69.5085H291.146V70.822H292.197V74.9423C292.197 76.4217 292.515 76.9471 294.229 76.9471H295.626V75.5783H295.045C294.367 75.5783 294.105 75.4262 294.105 74.6657V70.822H295.653V69.5085H294.105V67.4898L292.197 67.4898V69.5085Z" fill="white"/>
<path d="M246.99 111.446L250.474 121.471L252.493 121.471L255.949 111.446H253.848L251.525 118.996L249.133 111.446H246.99ZM256.733 114.032V121.471H258.641V114.032H256.733ZM256.733 111.446V113.216H258.641V111.446H256.733ZM264.61 114.073C264.486 114.06 264.348 114.046 264.196 114.046C263.325 114.046 262.661 114.405 262.232 115.332V114.032L260.352 114.032V121.471L262.26 121.471V117.571C262.26 116.175 262.882 115.829 263.822 115.829C264.099 115.829 264.334 115.829 264.61 115.871V114.073ZM269.966 118.622C269.966 119.715 269.469 120.351 268.266 120.351C267.395 120.351 266.98 119.908 266.98 119.369C266.98 118.539 267.823 118.29 269.966 118.069V118.622ZM270.132 120.544C270.174 120.917 270.201 121.235 270.257 121.471H272.013C271.861 120.848 271.791 120.185 271.791 119.009C271.791 118.346 271.819 117.336 271.819 117.115C271.819 114.613 270.367 113.838 268.611 113.838C266.69 113.838 265.5 114.917 265.348 116.382H267.132C267.173 115.553 267.782 115.179 268.515 115.179C269.289 115.179 269.911 115.58 269.911 116.728V116.852C266.98 117.184 265.017 117.71 265.017 119.466C265.017 120.821 266.275 121.65 267.699 121.65C268.819 121.65 269.593 121.318 270.132 120.544ZM275.317 111.446H273.409L273.409 121.471H275.317L275.317 111.446ZM277.027 114.032V121.471L278.935 121.471L278.935 114.032L277.027 114.032ZM277.027 111.446L277.027 113.216L278.935 113.216V111.446L277.027 111.446ZM280.909 114.032H279.858V115.345H280.909V119.466C280.909 120.945 281.227 121.471 282.941 121.471H284.338V120.102H283.757C283.079 120.102 282.817 119.95 282.817 119.189V115.345H284.365V114.032H282.817V112.013H280.909V114.032ZM286.334 123.89C288.187 123.89 288.561 123.558 289.445 121.249L292.169 114.032H290.234L288.505 119.397L286.818 114.032L284.731 114.032L287.579 121.443L287.496 121.65C287.164 122.425 286.888 122.425 286.251 122.425H285.533V123.89H286.334Z" fill="white"/>
<path d="M239.273 161.168C238.941 162.537 237.987 163.062 236.784 163.062C235.346 163.062 234.171 161.79 234.171 159.398C234.171 157.075 235.346 155.831 236.853 155.831C237.959 155.831 238.9 156.287 239.273 157.684H241.153C240.822 155.596 239.218 154.255 236.867 154.255C233.95 154.255 232.125 156.232 232.125 159.398C232.125 162.606 233.825 164.639 236.812 164.639C239.204 164.639 240.891 163.201 241.153 161.168H239.273ZM245.805 158.348C246.855 158.348 247.602 159.163 247.602 160.753C247.602 162.343 246.855 163.145 245.805 163.145C244.754 163.145 244.007 162.343 244.007 160.753C244.007 159.163 244.754 158.348 245.805 158.348ZM245.805 164.639C247.685 164.639 249.538 163.353 249.538 160.753C249.538 158.14 247.685 156.854 245.805 156.854C243.924 156.854 242.071 158.14 242.071 160.753C242.071 163.353 243.924 164.639 245.805 164.639ZM259.905 164.459H261.813V159.772C261.813 158.016 261.163 156.854 259.296 156.854C258.176 156.854 257.444 157.241 256.849 158.071C256.559 157.518 256.006 156.854 254.734 156.854C253.835 156.854 253.088 157.269 252.66 158.002V157.02H250.752V164.459H252.66L252.66 160.587C252.66 159.454 252.853 158.389 254.139 158.389C255.259 158.389 255.328 159.315 255.328 160.131L255.328 164.459H257.236V160.587C257.236 159.454 257.43 158.389 258.716 158.389C259.836 158.389 259.905 159.315 259.905 160.131V164.459ZM272.57 164.459H274.478V159.772C274.478 158.016 273.828 156.854 271.962 156.854C270.842 156.854 270.109 157.241 269.514 158.071C269.224 157.518 268.671 156.854 267.399 156.854C266.5 156.854 265.754 157.269 265.325 158.002V157.02L263.417 157.02V164.459L265.325 164.459V160.587C265.325 159.454 265.518 158.389 266.804 158.389C267.924 158.389 267.993 159.315 267.993 160.131V164.459H269.901V160.587C269.901 159.454 270.095 158.389 271.381 158.389C272.501 158.389 272.57 159.315 272.57 160.131V164.459ZM280.659 164.459L282.567 164.459V157.02L280.659 157.02V160.892C280.659 162.067 280.382 163.104 279.11 163.104C278.045 163.104 277.893 162.302 277.893 161.306V157.02H275.985V161.721C275.985 163.546 276.704 164.639 278.488 164.639C279.414 164.639 280.23 164.238 280.659 163.477V164.459ZM286.186 157.02H284.278V164.459H286.186L286.186 160.587C286.186 159.412 286.463 158.389 287.721 158.389C288.799 158.389 289.007 159.232 289.007 160.186V164.459H290.915V159.772C290.915 157.905 290.154 156.854 288.343 156.854C287.417 156.854 286.615 157.241 286.186 158.002V157.02ZM292.515 157.02V164.459H294.423L294.423 157.02H292.515ZM292.515 154.435L292.515 156.204H294.423V154.435H292.515ZM296.396 157.02H295.345V158.334H296.396V162.454C296.396 163.933 296.714 164.459 298.428 164.459H299.825V163.09H299.244C298.567 163.09 298.304 162.938 298.304 162.177V158.334H299.853V157.02H298.304V155.002L296.396 155.002V157.02ZM301.822 166.878C303.674 166.878 304.048 166.547 304.933 164.238L307.656 157.02H305.721L303.992 162.385L302.306 157.02H300.218L303.066 164.431L302.983 164.639C302.651 165.413 302.375 165.413 301.739 165.413H301.02V166.878H301.822Z" fill="white"/>
<line x1="183.2" y1="138.175" x2="357.567" y2="138.175" stroke="white" stroke-width="3.07255"/>
<line x1="183.2" y1="94.4196" x2="357.567" y2="94.4196" stroke="white" stroke-width="3.07255"/>
<line x1="183.2" y1="49.1284" x2="357.567" y2="49.1284" stroke="white" stroke-width="3.07255"/>
<path d="M356.03 169.65L356.03 4.60593L183.2 4.60593L183.2 169.65" stroke="white" stroke-width="3.07255"/>
</g>
<path d="M229.609 455.177C229.277 456.546 228.323 457.071 227.12 457.071C225.682 457.071 224.507 455.799 224.507 453.407C224.507 451.084 225.682 449.84 227.189 449.84C228.295 449.84 229.236 450.296 229.609 451.693H231.489C231.157 449.605 229.554 448.264 227.203 448.264C224.286 448.264 222.461 450.241 222.461 453.407C222.461 456.615 224.161 458.647 227.148 458.647C229.54 458.647 231.227 457.209 231.489 455.177H229.609ZM236.14 452.356C237.191 452.356 237.938 453.172 237.938 454.762C237.938 456.352 237.191 457.154 236.14 457.154C235.09 457.154 234.343 456.352 234.343 454.762C234.343 453.172 235.09 452.356 236.14 452.356ZM236.14 458.647C238.021 458.647 239.874 457.362 239.874 454.762C239.874 452.149 238.021 450.863 236.14 450.863C234.26 450.863 232.407 452.149 232.407 454.762C232.407 457.362 234.26 458.647 236.14 458.647ZM250.241 458.468H252.149V453.78C252.149 452.025 251.499 450.863 249.632 450.863C248.512 450.863 247.779 451.25 247.185 452.08C246.895 451.527 246.342 450.863 245.069 450.863C244.171 450.863 243.424 451.278 242.996 452.011V451.029H241.087L241.087 458.468H242.996V454.596C242.996 453.462 243.189 452.398 244.475 452.398C245.595 452.398 245.664 453.324 245.664 454.14V458.468H247.572V454.596C247.572 453.462 247.766 452.398 249.052 452.398C250.171 452.398 250.241 453.324 250.241 454.14V458.468ZM257.334 457.182C256.283 457.182 255.592 456.297 255.592 454.748C255.592 453.255 256.283 452.329 257.334 452.329C258.329 452.329 259.034 453.324 259.034 454.762C259.034 456.214 258.329 457.182 257.334 457.182ZM255.661 460.887V457.527C256.145 458.357 257.016 458.647 257.79 458.647C259.56 458.647 261.039 457.126 261.039 454.748C261.039 452.412 259.601 450.863 257.804 450.863C256.864 450.863 256.062 451.278 255.661 451.983V451.029H253.753V460.887H255.661ZM265.616 452.356C266.667 452.356 267.414 453.172 267.414 454.762C267.414 456.352 266.667 457.154 265.616 457.154C264.565 457.154 263.819 456.352 263.819 454.762C263.819 453.172 264.565 452.356 265.616 452.356ZM265.616 458.647C267.497 458.647 269.349 457.362 269.349 454.762C269.349 452.149 267.497 450.863 265.616 450.863C263.736 450.863 261.883 452.149 261.883 454.762C261.883 457.362 263.736 458.647 265.616 458.647ZM275.14 458.468H277.048V451.029H275.14V454.9C275.14 456.076 274.863 457.113 273.591 457.113C272.527 457.113 272.374 456.311 272.374 455.315V451.029H270.466V455.73C270.466 457.555 271.185 458.647 272.969 458.647C273.895 458.647 274.711 458.246 275.14 457.486V458.468ZM280.667 451.029H278.759V458.468H280.667V454.596C280.667 453.421 280.944 452.398 282.202 452.398C283.28 452.398 283.488 453.241 283.488 454.195V458.468H285.396V453.78C285.396 451.914 284.635 450.863 282.824 450.863C281.898 450.863 281.096 451.25 280.667 452.011V451.029ZM293.798 458.468V448.443H291.89V451.983C291.489 451.278 290.687 450.863 289.747 450.863C287.95 450.863 286.512 452.412 286.512 454.748C286.512 457.126 287.977 458.647 289.747 458.647C290.521 458.647 291.406 458.357 291.89 457.527V458.468H293.798ZM290.217 457.182C289.222 457.182 288.517 456.214 288.517 454.762C288.517 453.324 289.222 452.329 290.217 452.329C291.268 452.329 291.959 453.255 291.959 454.748C291.959 456.297 291.268 457.182 290.217 457.182ZM295.516 451.029V458.468H297.424V451.029H295.516ZM295.516 448.443V450.213H297.424V448.443H295.516ZM301.042 451.029H299.134V458.468H301.042V454.596C301.042 453.421 301.319 452.398 302.577 452.398C303.656 452.398 303.863 453.241 303.863 454.195V458.468H305.771V453.78C305.771 451.914 305.011 450.863 303.199 450.863C302.273 450.863 301.471 451.25 301.042 452.011V451.029ZM310.606 456.753C309.624 456.753 308.892 455.771 308.892 454.541C308.892 453.297 309.624 452.315 310.606 452.315C311.671 452.315 312.321 453.214 312.321 454.527C312.321 455.854 311.671 456.753 310.606 456.753ZM312.251 451.029V451.997C311.92 451.347 311.062 450.863 310.122 450.863C308.256 450.863 306.887 452.412 306.887 454.527C306.887 456.698 308.297 458.205 310.122 458.205C310.897 458.205 311.768 457.901 312.251 457.085V458.081C312.251 459.2 311.588 459.671 310.592 459.671C309.735 459.671 309.224 459.366 309.058 458.758H307.246C307.509 460.486 308.905 461.067 310.496 461.067C312.777 461.067 314.146 460.154 314.146 457.721V451.029H312.251ZM250.222 466.264C247.152 466.264 245.313 468.296 245.313 471.407C245.313 474.615 247.069 476.647 249.89 476.647C251.314 476.647 252.337 476.122 252.904 475.292L252.959 476.468H254.522V471.144H250.194V472.762H252.697V472.928C252.697 474.532 251.259 475.071 250.194 475.071C248.466 475.071 247.36 473.827 247.36 471.407C247.36 469.015 248.535 467.84 250.208 467.84C251.328 467.84 252.296 468.379 252.614 469.485H254.494C254.162 467.633 252.586 466.264 250.222 466.264ZM260.462 469.07C260.338 469.057 260.199 469.043 260.047 469.043C259.176 469.043 258.512 469.402 258.084 470.329V469.029H256.203V476.468H258.111V472.569C258.111 471.172 258.734 470.826 259.674 470.826C259.95 470.826 260.185 470.826 260.462 470.868V469.07ZM264.678 470.356C265.729 470.356 266.475 471.172 266.475 472.762C266.475 474.352 265.729 475.154 264.678 475.154C263.627 475.154 262.88 474.352 262.88 472.762C262.88 471.172 263.627 470.356 264.678 470.356ZM264.678 476.647C266.558 476.647 268.411 475.362 268.411 472.762C268.411 470.149 266.558 468.863 264.678 468.863C262.797 468.863 260.945 470.149 260.945 472.762C260.945 475.362 262.797 476.647 264.678 476.647ZM271.725 474.172L270.729 469.029H268.835L270.577 476.468H272.541L273.909 470.826L275.264 476.468H277.228L278.984 469.029H277.089L276.094 474.159L274.919 469.029H272.886L271.725 474.172ZM280.109 469.029H279.058V470.343H280.109V474.463C280.109 475.942 280.427 476.468 282.141 476.468H283.538V475.099H282.957C282.28 475.099 282.017 474.947 282.017 474.186V470.343H283.565V469.029H282.017V467.01H280.109V469.029ZM286.696 466.443H284.788V476.468H286.696V472.596C286.696 471.421 286.973 470.398 288.231 470.398C289.309 470.398 289.517 471.241 289.517 472.195V476.468H291.425V471.78C291.425 469.914 290.664 468.863 288.853 468.863C287.927 468.863 287.125 469.25 286.696 470.011V466.443Z" fill="white"/>
<path d="M202.788 420.671L202.788 490.987L268.464 522L334.14 490.987L334.14 420.671" stroke="white" stroke-width="3.07255"/>
</svg>
